# File created by Blade
# Date/Time:  Tue Jan 27 18:12:42 2015
# Frame Rate: 120.000 fps
#------------------------------------------------------
:FULLY-SPECIFIED
:DEGREES
2761
root -1.354478 31.833351 -6.513815 7.669551 10.146704 3.550175
Spine -7.226445 -14.186349 -2.445739
Head 7.772199 -1.233729 8.412530
LeftShoulder -15.286800 18.018626 3.927698
LeftArm 26.552471 40.991140 -68.403389
LeftForeArm -0.959682 -0.000000 16.318593
LeftHand -11.105917 -0.000000 -4.592064
LeftHandThumb1 -26.253704 0.000000 33.147579
RightShoulder -15.067481 -1.504411 -18.662308
RightArm -15.742839 62.578921 46.482431
RightForeArm 28.692426 0.000000 107.178682
RightHand -8.385493 -0.000000 6.217008
RightHandThumb1 -24.326973 -0.000000 -32.862282
LeftUpLeg -3.432070 -1.953979 -1.098606
LeftLeg 0.855153 -0.000000 -0.000000
LeftFoot -17.118994 14.950768 -24.260432
LeftToeBase 8.648824 -0.000000 -0.000000
RightUpLeg -0.186510 -5.478479 -3.691428
RightLeg -2.634691 -0.000000 0.000000
RightFoot -16.438923 -15.321809 10.382997
RightToeBase 5.159858 -0.000000 -0.000000
2762
root -1.354784 31.834015 -6.510059 7.693478 10.143449 3.553073
Spine -7.200488 -14.365182 -2.437242
Head 7.779597 -0.890787 8.511038
LeftShoulder -15.312027 18.052130 3.965663
LeftArm 26.521240 40.942828 -68.454269
LeftForeArm -0.948892 0.000000 16.369616
LeftHand -11.100146 -0.000000 -4.443582
LeftHandThumb1 -26.253704 0.000000 33.147579
RightShoulder -15.392262 -1.946602 -18.744801
RightArm -16.191251 62.601260 46.212700
RightForeArm 28.465306 -0.000000 107.201902
RightHand -8.255084 -0.000000 6.053006
RightHandThumb1 -24.326973 -0.000000 -32.862282
LeftUpLeg -3.437369 -1.962078 -1.100194
LeftLeg 0.829066 -0.000000 -0.000000
LeftFoot -17.094929 14.993514 -24.229037
LeftToeBase 8.558625 -0.000000 -0.000000
RightUpLeg -0.206944 -5.515637 -3.686286
RightLeg -2.629860 -0.000000 0.000000
RightFoot -16.436533 -15.299644 10.377547
RightToeBase 5.162750 -0.000000 -0.000000
2763
root -1.355332 31.835124 -6.506408 7.711393 10.133117 3.550778
Spine -7.176735 -14.583970 -2.410727
Head 7.803289 -0.476649 8.601723
LeftShoulder -15.411184 18.121336 3.954178
LeftArm 26.568870 40.886443 -68.432916
LeftForeArm -0.919963 -0.000000 16.413119
LeftHand -11.089158 0.000000 -4.399607
LeftHandThumb1 -26.253704 0.000000 33.147579
RightShoulder -15.635793 -2.427858 -18.808811
RightArm -16.803317 62.795317 45.804512
RightForeArm 28.705151 0.000000 107.252609
RightHand -8.151247 -0.000000 5.966460
RightHandThumb1 -24.326973 -0.000000 -32.862282
LeftUpLeg -3.436850 -1.967343 -1.095365
LeftLeg 0.803586 -0.000000 -0.000000
LeftFoot -17.082964 14.988807 -24.254904
LeftToeBase 8.663793 -0.000000 -0.000000
RightUpLeg -0.212791 -5.496257 -3.681884
RightLeg -2.645237 -0.000000 0.000000
RightFoot -16.424981 -15.311931 10.385301
RightToeBase 5.157292 -0.000000 -0.000000
2764
root -1.355467 31.835708 -6.502748 7.724717 10.130907 3.545840
Spine -7.135736 -14.815423 -2.391353
Head 7.810065 -0.079785 8.708185
LeftShoulder -15.501867 18.164094 3.965272
LeftArm 26.629839 40.867726 -68.409880
LeftForeArm -0.927960 -0.000000 16.416523
LeftHand -11.118668 -0.000000 -4.511154
LeftHandThumb1 -26.253704 0.000000 33.147579
RightShoulder -15.888235 -2.885979 -18.864055
RightArm -17.330812 62.967336 45.481501
RightForeArm 28.643012 0.000000 107.278664
RightHand -8.132089 0.000000 6.003473
RightHandThumb1 -24.326973 -0.000000 -32.862282
LeftUpLeg -3.426830 -1.998262 -1.087149
LeftLeg 0.768423 -0.000000 -0.000000
LeftFoot -17.085101 15.012458 -24.267310
LeftToeBase 8.678610 -0.000000 -0.000000
RightUpLeg -0.223661 -5.527682 -3.672214
RightLeg -2.641328 -0.000000 0.000000
RightFoot -16.418512 -15.300425 10.375596
RightToeBase 5.144668 -0.000000 -0.000000
2765
root -1.355505 31.835826 -6.497328 7.737957 10.124280 3.551160
Spine -7.097819 -15.009072 -2.384216
Head 7.820423 0.261731 8.807991
LeftShoulder -15.531236 18.195234 3.996832
LeftArm 26.629945 40.861777 -68.408685
LeftForeArm -0.927463 -0.000000 16.468104
LeftHand -11.087972 0.000000 -4.492999
LeftHandThumb1 -26.253704 0.000000 33.147579
RightShoulder -16.176496 -3.328253 -18.904913
RightArm -17.969622 63.056507 45.028462
RightForeArm 28.630143 -0.000000 107.334151
RightHand -8.111131 0.000000 5.876672
RightHandThumb1 -24.326973 -0.000000 -32.862282
LeftUpLeg -3.413828 -2.015164 -1.088922
LeftLeg 0.737451 -0.000000 -0.000000
LeftFoot -17.066713 15.038091 -24.250790
LeftToeBase 8.620347 -0.000000 -0.000000
RightUpLeg -0.224002 -5.543727 -3.674065
RightLeg -2.648926 -0.000000 0.000000
RightFoot -16.426409 -15.291030 10.374004
RightToeBase 5.166402 -0.000000 -0.000000
2766
root -1.356764 31.835619 -6.493181 7.740764 10.118405 3.548933
Spine -7.045965 -15.220157 -2.374920
Head 7.833992 0.624184 8.897697
LeftShoulder -15.578971 18.242530 4.021384
LeftArm 26.654077 40.842030 -68.390706
LeftForeArm -0.935268 -0.000000 16.522078
LeftHand -11.115858 -0.000000 -4.431108
LeftHandThumb1 -26.253704 0.000000 33.147579
RightShoulder -16.473799 -3.761658 -18.935200
RightArm -18.496492 63.161961 44.712189
RightForeArm 28.564734 -0.000000 107.403151
RightHand -8.132804 0.000000 5.907886
RightHandThumb1 -24.326973 -0.000000 -32.862282
LeftUpLeg -3.392167 -2.035461 -1.082626
LeftLeg 0.701104 -0.000000 -0.000000
LeftFoot -17.059517 15.061363 -24.246716
LeftToeBase 8.657250 -0.000000 -0.000000
RightUpLeg -0.216714 -5.541584 -3.668056
RightLeg -2.658070 -0.000000 0.000000
RightFoot -16.426372 -15.303257 10.366794
RightToeBase 5.162034 -0.000000 -0.000000
2767
root -1.358027 31.835196 -6.485368 7.724699 10.136192 3.550060
Spine -6.982161 -15.458391 -2.372174
Head 7.853441 0.982486 8.987508
LeftShoulder -15.642829 18.322389 4.019926
LeftArm 26.769537 40.833466 -68.301109
LeftForeArm -0.906604 -0.000000 16.525695
LeftHand -11.173160 0.000000 -4.344249
LeftHandThumb1 -26.253704 0.000000 33.147579
RightShoulder -16.753821 -4.137773 -18.958383
RightArm -19.163269 63.223619 44.239462
RightForeArm 28.510627 0.000000 107.461178
RightHand -8.163031 -0.000000 5.916899
RightHandThumb1 -24.326973 -0.000000 -32.862282
LeftUpLeg -3.341798 -2.090539 -1.073088
LeftLeg 0.654240 -0.000000 -0.000000
LeftFoot -17.058044 15.076080 -24.278423
LeftToeBase 8.679809 -0.000000 -0.000000
RightUpLeg -0.168198 -5.562247 -3.663118
RightLeg -2.691308 -0.000000 0.000000
RightFoot -16.428808 -15.307526 10.387105
RightToeBase 5.155294 -0.000000 -0.000000
2768
root -1.359014 31.835128 -6.483164 7.738669 10.116385 3.546319
Spine -6.944780 -15.668326 -2.359866
Head 7.860937 1.359618 9.081566
LeftShoulder -15.670680 18.316930 4.056531
LeftArm 26.730659 40.811564 -68.330246
LeftForeArm -0.896194 0.000000 16.548665
LeftHand -11.150855 -0.000000 -4.306254
LeftHandThumb1 -26.253704 0.000000 33.147579
RightShoulder -17.008623 -4.594965 -18.931301
RightArm -19.732195 63.403447 43.836349
RightForeArm 28.504491 -0.000000 107.530197
RightHand -8.324386 0.000000 5.968519
RightHandThumb1 -24.326973 -0.000000 -32.862282
LeftUpLeg -3.338004 -2.094122 -1.068056
LeftLeg 0.622195 -0.000000 -0.000000
LeftFoot -17.034547 15.111893 -24.237988
LeftToeBase 8.666045 -0.000000 -0.000000
RightUpLeg -0.186763 -5.552951 -3.656796
RightLeg -2.681067 -0.000000 0.000000
RightFoot -16.429324 -15.305348 10.374403
RightToeBase 5.131319 -0.000000 -0.000000
2769
root -1.360820 31.835268 -6.480240 7.749736 10.098721 3.535294
Spine -6.913069 -15.904097 -2.328008
Head 7.882336 1.776447 9.149650
LeftShoulder -15.725735 18.352381 4.058101
LeftArm 26.760615 40.781524 -68.304142
LeftForeArm -0.906782 -0.000000 16.543321
LeftHand -11.105947 -0.000000 -4.296298
LeftHandThumb1 -26.253704 0.000000 33.147579
RightShoulder -17.238399 -5.323681 -18.849469
RightArm -19.885990 63.741556 43.868049
RightForeArm 28.442909 0.000000 107.602279
RightHand -8.327515 0.000000 5.982878
RightHandThumb1 -24.326973 -0.000000 -32.862282
LeftUpLeg -3.330957 -2.106457 -1.052691
LeftLeg 0.593179 -0.000000 -0.000000
LeftFoot -17.043716 15.139337 -24.254698
LeftToeBase 8.692408 -0.000000 -0.000000
RightUpLeg -0.192207 -5.522382 -3.643903
RightLeg -2.693256 -0.000000 0.000000
RightFoot -16.429831 -15.323531 10.391459
RightToeBase 5.150182 -0.000000 -0.000000
2770
root -1.361825 31.835129 -6.476760 7.752106 10.077996 3.531884
Spine -6.872660 -16.152789 -2.310368
Head 7.907217 2.191380 9.243128
LeftShoulder -15.753259 18.347148 4.077058
LeftArm 26.676093 40.736356 -68.330322
LeftForeArm -0.923941 -0.000000 16.629369
LeftHand -11.206536 -0.000000 -4.368806
LeftHandThumb1 -26.253704 0.000000 33.147579
RightShoulder -17.506398 -5.619301 -18.884359
RightArm -20.457720 63.725979 43.526721
RightForeArm 28.393444 -0.000000 107.656734
RightHand -8.372584 0.000000 5.892311
RightHandThumb1 -24.326973 -0.000000 -32.862282
LeftUpLeg -3.303858 -2.150349 -1.044501
LeftLeg 0.548392 -0.000000 -0.000000
LeftFoot -17.040725 15.199343 -24.259126
LeftToeBase 8.596536 -0.000000 -0.000000
RightUpLeg -0.197529 -5.537495 -3.638145
RightLeg -2.685835 -0.000000 0.000000
RightFoot -16.434180 -15.288337 10.438499
RightToeBase 5.095798 -0.000000 -0.000000
2771
root -1.356985 31.835197 -6.470518 7.735496 10.056086 3.544599
Spine -6.821008 -16.387845 -2.289956
Head 7.944562 2.570031 9.291386
LeftShoulder -15.811525 18.384304 4.052393
LeftArm 26.766723 40.767158 -68.241796
LeftForeArm -0.952296 -0.000000 16.584805
LeftHand -11.140143 -0.000000 -4.332115
LeftHandThumb1 -26.253704 0.000000 33.147579
RightShoulder -17.750252 -5.900571 -18.964638
RightArm -21.197069 63.671238 43.061623
RightForeArm 28.271414 -0.000000 107.727803
RightHand -8.448973 -0.000000 5.858709
RightHandThumb1 -24.326973 -0.000000 -32.862282
LeftUpLeg -3.245945 -2.183324 -1.066879
LeftLeg 0.493013 -0.000000 -0.000000
LeftFoot -17.028682 15.268434 -24.237352
LeftToeBase 8.646100 -0.000000 -0.000000
RightUpLeg -0.158586 -5.553686 -3.662522
RightLeg -2.706783 -0.000000 0.000000
RightFoot -16.430593 -15.268493 10.395817
RightToeBase 5.151667 -0.000000 -0.000000
